# xmcd CD database file
#
# Track frame offsets:
#	150
#	14055
#	25810
#	38050
#	50470
#	64255
#	76577
#	87417
#	98887
#	110022
#	123525
#	135132
#	148110
#	162740
#	177755
#
# Disc length: 2518 seconds
#
# Revision: 3
# Processed by: cddbd v1.5.1PL0 Copyright (c) Steve Scherf et al.
# Submitted via: CDex 1.51
#
DISCID=c909d40f
DTITLE=Living The Blues - Blues Classics 1960-1964 - Cd 1
DYEAR=1964
DGENRE=Blues
TTITLE0=Freddy King - Have You Ever Loved A Woman
TTITLE1=Jimmy Reed - Hush Hush
TTITLE2=Bobby Bland - I Pitty The Fool
TTITLE3=Muddy Waters - You Shock Me
TTITLE4=B. B. King - Sweet Sixteen (Part 1)
TTITLE5=Little Willy John - Take My Love
TTITLE6=Little Junior Parker - Annie Get Your Yo Yo
TTITLE7=Earl King - Always A First Time
TTITLE8=Howlin' Wolf - Little Red Roadster
TTITLE9=Albert King - Don'throw Your Love On Me So Strong
TTITLE10=Little Milton - So Mean To Me
TTITLE11=Percy Mayfield - River's Invitation
TTITLE12=Jimmy Mccracklin - Just Got To Know
TTITLE13=Esther Phillips - Release Me
TTITLE14=John Lee Hooker - No Shoes
EXTD=YEAR: 1964
EXTT0=
EXTT1=
EXTT2=
EXTT3=
EXTT4=
EXTT5=
EXTT6=
EXTT7=
EXTT8=
EXTT9=
EXTT10=
EXTT11=
EXTT12=
EXTT13=
EXTT14=
PLAYORDER=
